#!OML:ASF F:\VICON\USERDATA\INSTALL\rory3\rory3.ASF
:FULLY-SPECIFIED
:DEGREES
37
root 0.019712121136882893 18.393881042550547 12.650171904246415 4.583227616893378 -3.092331688520514 1.033493325080964
lfemur 16.97918368793529 -6.564948952752706 -28.720835300171697
ltibia 44.38706431544357
lfoot 23.143495230815 -18.031791442909235
ltoes -10.657476681517853
rfemur -42.77048776991549 -0.3671257063006681 25.472248802585945
rtibia 25.770876392360073
rfoot 4.333961983533393 -2.7292161354475075
rtoes -17.01623329007252
lowerback 14.516166034311166 -2.0310873896346613 -2.772006765616962
upperback -1.3132973999015383 -3.071816285947694 1.838402511927278
thorax -9.336676966663282 -1.2223722647037807 4.837943997917939
lowerneck -21.507152222406024 -2.31357687098144 -2.314708858753269
upperneck 13.777603614579698 -2.8440090433812992 2.1582877832047913
head 7.750514253291872 -1.2339661850576609 0.6945445232060432
lclavicle -2.371206618558875e-15 1.3182390935195278e-15
lhumerus -35.03923679716078 -21.638243223668184 94.6511528534802
lradius 115.65959355883935
lwrist 34.46959151042613
lhand -24.595060059668555 0.46303758312804955
lfingers 7.12502
lthumb 1.9027459595137013 30.44068557920481
rclavicle -2.371206618558875e-15 1.3182390935195278e-15
rhumerus -66.81798222017545 -1.3586784944159582 -93.83862081335327
rradius 112.20941179318295
rwrist -7.559988110497084
rhand -16.18539678208164 40.64971854933245
rfingers 7.12502
rthumb 10.020101825938063 10.56231264966454
38
root 0.05561907950428016 18.283554522191594 15.386298608519628 4.00406655394799 -3.2205109117381565 0.8998188702263392
lfemur 16.749003804966435 -5.438083782788606 -27.465769371285084
ltibia 52.41700652631202
lfoot 23.594783104327842 -17.73526111202072
ltoes -7.36396565138703
rfemur -40.57273195816718 -0.6067181120250851 26.680658343783648
rtibia 30.10398181211302
rfoot 5.235794854086657 -0.9284601835767097
rtoes -14.318283994871038
lowerback 15.005744639137506 -1.8060546385820602 -2.170426494966094
upperback -0.9445098462207734 -2.6766067662833386 2.0057001324172887
thorax -9.307562794213043 -1.065846206444132 4.806384162862411
lowerneck -21.149173773737736 -2.2261350599180396 -2.4148292222821444
upperneck 13.573919693843198 -2.664149465317631 2.1102555329744153
head 7.664636233569487 -1.171323906321935 0.7046850378137686
lclavicle -7.843341115687618e-16 2.467571675178533e-15
lhumerus -34.735951707203476 -20.619473810991497 95.23142639778223
lradius 112.7678658356921
lwrist 34.235313017506385
lhand -25.166929214101472 0.17474080571830308
lfingers 7.12502
lthumb 1.3504430088708357 30.156855669285715
rclavicle -7.843341115687618e-16 2.467571675178533e-15
rhumerus -65.21852198587243 -1.2451127054982063 -93.69079670858832
rradius 111.82722607716167
rwrist -7.23460795032269
rhand -16.294590912915314 40.90505437401615
rfingers 7.12502
rthumb 9.914773920311834 10.760852288480597
39
root 0.05412941308560973 18.101601042096913 14.35132112843008 3.261884825885107 -4.1626482647454255 0.4485174469141251
lfemur 13.999233962296907 -3.7853422106708297 -26.12424906504358
ltibia 58.91723985927978
lfoot 21.809033519692434 -16.875688108181407
ltoes -4.626625897204706
rfemur -39.99157824327143 -0.43440947001503716 27.45213162475086
rtibia 33.26972014491635
rfoot 4.122182788301372 1.988089054599377
rtoes -3.484026486588325
lowerback 15.452635649436635 -1.417176873234557 -1.9093263094318111
upperback -0.6611274242834889 -2.109815030721271 2.071444448181416
thorax -9.415865613904579 -0.8134885557085839 4.4386670297323585
lowerneck -21.009456687122647 -2.245796837680328 -2.343422718551584
upperneck 13.546803194756592 -2.6796570756789753 1.8961757841954057
head 7.6304884365814925 -1.1984640587435513 0.6066692389984302
lclavicle -1.4687194955391269e-15 1.971667559212901e-15
lhumerus -36.44771205614148 -19.88967769576358 95.61997026788114
lradius 108.89111407466933
lwrist 33.736908048964914
lhand -25.4685690214094 -0.13650594772557967
lfingers 7.12502
lthumb 1.0591340526312334 29.847562377300584
rclavicle -1.4687194955391269e-15 1.971667559212901e-15
rhumerus -63.758898607049886 -1.0756368856358733 -93.72156707218606
rradius 110.39516929738168
rwrist -6.901977516476222
rhand -16.607733326737335 40.74701711112309
rfingers 7.12502
rthumb 9.61262057125221 10.6597147492254
40
root 0.04733873481727488 17.89251165651071 15.793091407276552 2.5556967178445267 -4.631762272977583 0.0886168247397845
lfemur 11.218289669727094 -1.5622892230701648 -24.092319619797465
ltibia 67.35218930576517
lfoot 20.6145563773366 -15.132935134153197
ltoes -1.602658486596626
rfemur -37.619175934926474 0.10095027446093585 28.485792610507797
rtibia 39.23457065138547
rfoot 1.4786318694080345 3.7500118773380295
rtoes 8.557865045479303
lowerback 16.030651304850345 -0.9755442872548832 -1.4154291971921873
upperback -0.4289419793496412 -1.4277989872678059 2.2046679655923658
thorax -9.571392620945103 -0.5167772766934674 4.238728957070282
lowerneck -20.63839893636514 -2.1959012369154456 -2.3269770852558445
upperneck 13.603116209514699 -2.5788253308466977 1.6934341975465894
head 7.602806901605242 -1.1790687922180996 0.5320966319354681
lclavicle -7.488644548148562e-16 2.49139293148869e-15
lhumerus -37.76133193112551 -19.004063685862903 96.63979537742112
lradius 105.82677463811486
lwrist 34.85128799615137
lhand -26.490626418664853 -2.3201011138538545
lfingers 7.12502
lthumb 0.07218214132140255 27.645904421540777
rclavicle -7.488644548148562e-16 2.49139293148869e-15
rhumerus -61.63927953756749 -0.13109725985961873 -94.09758396292855
rradius 109.2344726838226
rwrist -6.981120093556795
rhand -16.756907315719662 40.695662728024764
rfingers 7.12502
rthumb 9.468798539135653 10.579069150061077
41
root -0.0019419702568358732 17.61385430873005 14.310300257837365 1.9479386097328844 -5.43633638592144 -0.9420159696459798
lfemur 5.62095813063196 0.6398514824370041 -21.710970272616002
ltibia 74.21066446578418
lfoot 17.27270174836923 -13.528028102055162
ltoes -3.483579029503389
rfemur -37.25381462948282 1.0324374801811511 29.43744912640396
rtibia 43.4838397991677
rfoot -3.871049059441237 1.8524620544974821
rtoes 13.234509897310337
lowerback 16.301232712266525 -0.6504437396454079 -0.90549786700643
upperback -0.2786661075813931 -0.856360068965162 2.4087364927268093
thorax -9.70334493002273 -0.27132031557258174 3.650757623839249
lowerneck -20.821909166599962 -2.3192819647179674 -2.2309927964483336
upperneck 13.673268855894115 -2.740356733460486 1.4038828285382865
head 7.620650155531725 -1.2737949343795716 0.39022338207840956
lclavicle -2.5555325533908688e-15 1.1835605719088136e-15
lhumerus -40.39278783953326 -17.866117463524187 96.84361258749692
lradius 101.31127617447076
lwrist 33.4141007081582
lhand -26.236914273597563 -1.622618097851307
lfingers 7.12502
lthumb 0.31708819366801677 28.365438425758025
rclavicle -2.5555325533908688e-15 1.1835605719088136e-15
rhumerus -59.82938971330526 0.8196907871839256 -94.87200172402093
rradius 107.72041395505293
rwrist -7.417473117873763
rhand -17.27169495697073 40.450518708616904
rfingers 7.12502
rthumb 8.972153011250318 10.327501806174496
42
root -0.044840586819536066 17.379955820293315 15.588220323254593 2.012377506890788 -5.539608625495072 -2.233385391455717
lfemur 1.021479694807212 2.9090985539319036 -17.806836075895774
ltibia 83.87629485215147
lfoot 15.392672628107066 -11.45956180720943
ltoes -0.9670149455752366
rfemur -34.97967894651539 2.7521084174093886 31.513688647645655
rtibia 49.92184229203832
rfoot -8.319065986787457 -2.935820050208541
rtoes 16.458886115592893
lowerback 16.78004058228354 -0.31528936354154236 0.3808859646575051
upperback -0.19879115838171757 -0.1120064910835703 2.946028845118732
thorax -9.91403119621172 0.027113397396617223 3.296969447988111
lowerneck -21.077997804340843 -2.317087515843873 -1.984247747383251
upperneck 13.733900428799757 -2.7386580103078435 1.2054665761704777
head 7.6679274330794005 -1.2903125399599291 0.26161707531078804
lclavicle -1.7536773653483892e-15 1.764805196001078e-15
lhumerus -41.816655680916654 -16.75202985465023 97.62362170933987
lradius 98.35630732235111
lwrist 33.637050701410786
lhand -26.305373996948152 -0.14879087224429655
lfingers 7.12502
lthumb 0.2509891723665467 29.83324136288868
rclavicle -1.7536773653483892e-15 1.7648051960010781e-15
rhumerus -56.6973478997298 2.331881757905313 -95.48507157043188
rradius 106.7604176716365
rwrist -8.37530381290659
rhand -17.455402271888854 40.130365344093796
rfingers 7.12502
rthumb 8.795062664122625 10.01773400637854
43
root -0.08533052240752326 17.181343062200376 15.952973044521073 2.1614079190302617 -5.350799238046728 -3.7649059926773036
lfemur -5.457616232002572 5.021170618361524 -14.05708848530426
ltibia 90.84516688693766
lfoot 11.954044888107457 -10.033788468092894
ltoes -2.0550557705372725
rfemur -32.044054618316075 4.237201274597155 33.47964685504686
rtibia 54.10348651821016
rfoot -12.258250831217415 -8.406533231573917
rtoes 13.776341679931967
lowerback 17.147204961435467 -0.01376800329208272 1.6678498872424048
upperback -0.10065958638500949 0.6125461309266099 3.462992820025324
thorax -10.057348468030973 0.3098720295640688 2.77101482161879
lowerneck -21.463260036000314 -2.3803901952493907 -1.7324545569980598
upperneck 13.602453709745818 -2.8511395769014856 1.0846868218454686
head 7.675830862936721 -1.3445998355531432 0.1628410851874088
lclavicle -1.7759929959445713e-15 1.7498675565501403e-15
lhumerus -43.998133687822744 -15.622355829444697 98.12732767847329
lradius 96.35327348828812
lwrist 32.99293788556025
lhand -25.81546067396009 0.9683069900641805
lfingers 7.12502
lthumb 0.7240709743539424 30.95760581088482
rclavicle -1.7759929959445713e-15 1.7498675565501403e-15
rhumerus -53.20772150394705 4.618105042691658 -95.80249810932744
rradius 106.07770225926602
rwrist -9.163856898508385
rhand -17.683417849893207 39.81895066872963
rfingers 7.12502
rthumb 8.575174590068167 9.73937628365087
44
root -0.13079885392950982 17.036028370127518 16.06700662307152 2.580958130360033 -4.8151467221487545 -4.8911315001635325
lfemur -11.920257971541304 6.6495061541234115 -11.045105719781123
ltibia 97.22716869911116
lfoot 9.30878722698267 -8.486670692668834
ltoes -0.5317691103858877
rfemur -28.657836113167 5.221031378540063 35.07400604438219
rtibia 57.54661339030102
rfoot -15.603999378547181 -13.376399795418159
rtoes 10.267866192738982
lowerback 17.519741203983223 0.23569072736472674 2.7318227652470832
upperback -0.034223738345107835 1.2005696806805508 3.8782338328044537
thorax -10.204371082410013 0.5402618031904027 2.413926547712617
lowerneck -21.858409689646287 -2.468365393269189 -1.5004543299819653
upperneck 13.251581248128861 -3.007269966524828 1.1221751420763313
head 7.627348838861432 -1.4088809154565056 0.12185854789100414
lclavicle -1.2358305709062005e-15 2.1414844762364012e-15
lhumerus -45.84245510180951 -14.881864219576158 98.82693947672732
lradius 95.17836148643786
lwrist 32.88793404880467
lhand -25.731627887895794 2.3669239501189083
lfingers 7.12502
lthumb 0.8050472772160882 32.35480078963774
rclavicle -1.2358305709062005e-15 2.1414844762364012e-15
rhumerus -49.68516182741081 6.805905152754155 -95.90798417867799
rradius 105.82584594650746
rwrist -9.353903481185732
rhand -17.59335608091625 39.62901163855522
rfingers 7.12502
rthumb 8.662096742554777 9.541916605428646
